<?xml version="1.0" encoding="utf-8"?>
<!-- Generator: Adobe Illustrator 23.0.6, SVG Export Plug-In . SVG Version: 6.00 Build 0)  -->
<svg version="1.1" xmlns="http://www.w3.org/2000/svg" xmlns:xlink="http://www.w3.org/1999/xlink" x="0px" y="0px"
	 viewBox="0 0 512 512" style="enable-background:new 0 0 512 512;" xml:space="preserve">
<style type="text/css">
	.st0{opacity:0.7;}
	.st1{fill:#808080;}
	.st2{fill:#FFFFFF;}
</style>
<g id="Layer_2" class="st0">
	<circle class="st1" cx="256" cy="256" r="256"/>
</g>
<g id="Layer_1">
	<path class="st2" d="M306.6,218.6l-36.7,36.7l36.7,36.7c3.9,3.9,3.9,10.2,0,14.1c-2,2-4.5,2.9-7.1,2.9s-5.1-1-7.1-2.9l-36.7-36.7
		l-36.7,36.7c-2,2-4.5,2.9-7.1,2.9s-5.1-1-7.1-2.9c-3.9-3.9-3.9-10.2,0-14.1l36.7-36.7l-36.7-36.7c-3.9-3.9-3.9-10.2,0-14.1
		c3.9-3.9,10.2-3.9,14.1,0l36.7,36.7l36.7-36.7c3.9-3.9,10.2-3.9,14.1,0C310.5,208.3,310.5,214.7,306.6,218.6z M346.5,165.5
		C322.3,141.3,290.2,128,256,128s-66.3,13.3-90.5,37.5S128,221.8,128,256s13.3,66.3,37.5,90.5S221.8,384,256,384
		c23.4,0,46.3-6.4,66.2-18.4c4.7-2.9,6.2-9,3.4-13.7c-2.9-4.7-9-6.2-13.7-3.4C295.1,358.6,275.8,364,256,364
		c-59.6,0-108-48.4-108-108s48.4-108,108-108s108,48.4,108,108c0,21.3-6.3,42-18.3,59.9c-3.1,4.6-1.8,10.8,2.8,13.9
		c4.6,3.1,10.8,1.8,13.9-2.8c14.2-21.2,21.7-45.8,21.7-71.1C384,221.8,370.7,189.7,346.5,165.5z"/>
</g>
</svg>
