<?xml version="1.0" encoding="utf-8"?>
<!-- Generator: Adobe Illustrator 23.0.6, SVG Export Plug-In . SVG Version: 6.00 Build 0)  -->
<svg version="1.1" xmlns="http://www.w3.org/2000/svg" xmlns:xlink="http://www.w3.org/1999/xlink" x="0px" y="0px"
	 viewBox="0 0 512 512" style="enable-background:new 0 0 512 512;" xml:space="preserve">
<style type="text/css">
	.st0{opacity:0.7;fill:#808080;}
	.st1{fill:#FFFFFF;}
</style>
<g id="Layer_2">
	<circle class="st0" cx="256" cy="256" r="256"/>
</g>
<g id="Layer_1">
	<path class="st1" d="M344,137H168c-22.1,0-40,17.9-40,40v140c0,22.1,17.9,40,40,40h136.5c5.5,0,10-4.5,10-10s-4.5-10-10-10h-36.8
		l-23-29.8l72.9-92.7l49,54.2c2.8,3.1,7.2,4.1,11,2.6c3.9-1.5,6.4-5.2,6.4-9.3v-85C384,154.9,366.1,137,344,137z M364,236
		l-39.6-43.8c-2-2.2-4.8-3.4-7.8-3.3c-2.9,0.1-5.7,1.5-7.5,3.8l-77.1,98l-26.2-33.9c-1.9-2.5-4.8-3.9-7.9-3.9c0,0,0,0,0,0
		c-3.1,0-6,1.4-7.9,3.9l-22,28.6c-3.4,4.4-2.5,10.7,1.8,14c4.4,3.4,10.7,2.5,14-1.8l14.1-18.3l44.4,57.6H168c-11,0-20-9-20-20V177
		c0-11,9-20,20-20h176c11,0,20,9,20,20V236z"/>
	<path class="st1" d="M198,173c-16.5,0-30,13.5-30,30s13.5,30,30,30s30-13.5,30-30S214.5,173,198,173z M198,213c-5.5,0-10-4.5-10-10
		s4.5-10,10-10s10,4.5,10,10S203.5,213,198,213z"/>
	<path class="st1" d="M362.2,288.5C362.2,288.4,362.2,288.4,362.2,288.5c-4.8-4.8-11.1-7.5-17.8-7.5c-6.7,0-12.9,2.6-17.7,7.3
		l-19.3,19c-3.9,3.9-4,10.2-0.1,14.1c3.9,3.9,10.2,4,14.1,0.1l12.9-12.7V365c0,5.5,4.5,10,10,10s10-4.5,10-10v-55.8l12.4,12.8
		c2,2,4.6,3,7.2,3c2.5,0,5-0.9,7-2.8c4-3.8,4.1-10.2,0.2-14.1L362.2,288.5z"/>
</g>
</svg>
