<?xml version="1.0" encoding="utf-8"?>
<!-- Generator: Adobe Illustrator 23.0.6, SVG Export Plug-In . SVG Version: 6.00 Build 0)  -->
<svg version="1.1" id="Layer_1" xmlns="http://www.w3.org/2000/svg" xmlns:xlink="http://www.w3.org/1999/xlink" x="0px" y="0px"
	 viewBox="0 0 445.6 175.6" style="enable-background:new 0 0 445.6 175.6;" xml:space="preserve">
<style type="text/css">
	.st0{stroke:#000000;stroke-width:2;stroke-miterlimit:10;}
</style>
<g>
	<path class="st0" d="M41.4,155.8H21V17.7h20.4V155.8z"/>
	<path class="st0" d="M139.5,14.8c10.8,0,20.8,1.8,30,5.2c9.2,3.5,17.4,8.3,24.5,14.5l-5.2,6.9c-2.8-2.4-6-4.7-9.5-6.8
		c-3.5-2.1-7.1-3.9-11-5.4c-3.8-1.5-7.8-2.7-12-3.6c-4.1-0.9-8.3-1.3-12.5-1.3c-9,0-17.1,1.6-24.1,4.9c-7,3.3-12.9,7.8-17.6,13.5
		c-4.8,5.7-8.4,12.4-10.9,20c-2.5,7.6-3.7,15.8-3.7,24.5c0,8.5,1.2,16.6,3.7,24.1c2.4,7.6,6,14.2,10.8,19.9
		c4.7,5.7,10.6,10.2,17.6,13.5c7,3.3,15,5,24.1,5c4.3,0,8.7-0.4,13.2-1.3c4.5-0.9,8.8-2.1,12.9-3.8c4.1-1.7,8.1-3.7,11.7-6.1
		c3.7-2.4,6.9-5.2,9.8-8.3l5.3,6.8c-7.3,6.9-15.8,12.4-25.4,16.3s-20.2,5.9-31.6,5.9c-6.9,0-13.5-0.9-19.8-2.6s-12.2-4.1-17.7-7.3
		c-5.5-3.2-10.5-6.9-15-11.3c-4.5-4.4-8.3-9.2-11.5-14.5c-3.2-5.3-5.7-11-7.4-17.1c-1.8-6.1-2.6-12.5-2.6-19.1
		c0-6.6,0.9-13,2.6-19.2c1.8-6.2,4.2-12,7.4-17.3c3.2-5.4,7-10.2,11.5-14.6c4.5-4.4,9.5-8.2,15-11.3c5.5-3.1,11.4-5.6,17.7-7.3
		C126.1,15.7,132.6,14.8,139.5,14.8z"/>
	<path class="st0" d="M294,17.7v9.1h-33.4v129h-20.3v-129h-33.7v-9.1H294z"/>
	<path class="st0" d="M372.4,14.8c10.8,0,20.8,1.8,30,5.2c9.2,3.5,17.4,8.3,24.5,14.5l-5.2,6.9c-2.8-2.4-6-4.7-9.5-6.8
		c-3.5-2.1-7.1-3.9-11-5.4c-3.8-1.5-7.8-2.7-12-3.6c-4.1-0.9-8.3-1.3-12.5-1.3c-9,0-17.1,1.6-24.1,4.9c-7,3.3-12.9,7.8-17.6,13.5
		c-4.8,5.7-8.4,12.4-10.9,20c-2.5,7.6-3.7,15.8-3.7,24.5c0,8.5,1.2,16.6,3.7,24.1c2.4,7.6,6,14.2,10.8,19.9
		c4.7,5.7,10.6,10.2,17.6,13.5c7,3.3,15,5,24.1,5c4.3,0,8.7-0.4,13.2-1.3c4.5-0.9,8.8-2.1,12.9-3.8c4.1-1.7,8.1-3.7,11.7-6.1
		c3.7-2.4,6.9-5.2,9.8-8.3l5.3,6.8c-7.3,6.9-15.8,12.4-25.4,16.3c-9.7,3.9-20.2,5.9-31.6,5.9c-6.9,0-13.5-0.9-19.8-2.6
		c-6.3-1.7-12.2-4.1-17.7-7.3c-5.5-3.2-10.5-6.9-15-11.3c-4.5-4.4-8.3-9.2-11.5-14.5c-3.2-5.3-5.7-11-7.4-17.1
		c-1.8-6.1-2.6-12.5-2.6-19.1c0-6.6,0.9-13,2.6-19.2c1.8-6.2,4.2-12,7.4-17.3c3.2-5.4,7-10.2,11.5-14.6c4.5-4.4,9.5-8.2,15-11.3
		c5.5-3.1,11.4-5.6,17.7-7.3C358.9,15.7,365.5,14.8,372.4,14.8z"/>
</g>
</svg>
